<?xml version="1.0" standalone="no"?>
<!DOCTYPE svg PUBLIC "-//W3C//DTD SVG 20010904//EN"
 "http://www.w3.org/TR/2001/REC-SVG-20010904/DTD/svg10.dtd">
<svg version="1.0" xmlns="http://www.w3.org/2000/svg"
 width="256.000000pt" height="256.000000pt" viewBox="0 0 256.000000 256.000000"
 preserveAspectRatio="xMidYMid meet">
<metadata>
Created by potrace 1.14, written by Peter Selinger 2001-2017
</metadata>
<g transform="translate(0.000000,256.000000) scale(0.100000,-0.100000)"
fill="#000000" stroke="none">
<path d="M808 2540 c13 -11 18 -21 12 -25 -5 -3 -10 -1 -10 4 0 19 -29 12 -41
-10 -9 -17 -13 -19 -20 -8 -7 11 -9 10 -9 -4 0 -12 -4 -16 -12 -11 -8 5 -7 0
2 -11 12 -15 12 -17 1 -10 -11 6 -13 4 -8 -8 4 -11 2 -14 -8 -10 -8 3 -12 10
-8 17 4 6 -1 5 -10 -3 -14 -11 -15 -16 -5 -29 11 -14 10 -15 -7 -8 -16 6 -18
5 -7 -5 6 -7 12 -18 12 -23 0 -6 -4 -5 -9 3 -5 7 -14 10 -20 6 -9 -5 -9 -11 1
-23 10 -12 10 -14 1 -8 -8 4 -13 1 -13 -9 0 -10 -5 -13 -12 -9 -8 5 -7 0 2
-11 9 -11 10 -16 3 -11 -8 4 -13 1 -13 -8 0 -9 6 -16 13 -16 9 0 9 -2 0 -8 -7
-5 -14 -20 -15 -34 -1 -15 -6 -24 -11 -21 -5 3 -6 12 -2 20 5 14 3 14 -11 2
-10 -8 -12 -15 -5 -17 8 -3 8 -10 0 -25 -9 -18 -9 -20 2 -9 19 18 33 15 15 -4
-12 -11 -13 -20 -6 -34 13 -24 13 -30 -1 -30 -5 0 -8 4 -5 9 3 5 -2 15 -12 22
-15 12 -16 12 -6 -1 6 -8 10 -23 9 -33 -2 -11 2 -17 12 -15 9 2 18 -4 20 -12
4 -12 2 -12 -5 -2 -7 10 -12 9 -23 -4 -8 -10 -9 -15 -3 -11 7 4 15 0 18 -9 3
-8 10 -12 16 -9 6 3 7 -1 4 -10 -6 -14 -8 -14 -19 1 -9 14 -14 14 -20 4 -5 -9
-4 -11 3 -6 11 7 17 -13 13 -38 -1 -5 4 -4 12 2 11 9 13 6 9 -20 -4 -24 -2
-29 9 -23 11 7 10 4 -1 -10 -14 -17 -13 -17 10 -10 25 7 25 7 5 -10 -11 -9
-14 -13 -6 -9 11 5 13 3 8 -9 -4 -12 -1 -17 12 -17 10 0 19 -7 20 -15 1 -8 2
-24 3 -34 1 -11 6 -18 9 -15 4 2 11 -1 14 -7 4 -5 14 -8 22 -4 13 5 14 3 3
-10 -11 -13 -11 -16 0 -13 8 2 14 -2 15 -9 0 -18 12 -25 21 -12 5 8 3 10 -7 4
-12 -8 -12 -6 0 8 18 22 20 22 17 -7 -2 -13 2 -23 8 -23 41 1 57 -4 50 -15 -5
-8 0 -7 11 2 11 9 16 10 11 3 -4 -7 -3 -13 1 -13 5 0 15 6 22 13 11 10 12 9 7
-1 -6 -9 -1 -11 20 -8 15 3 36 0 47 -5 14 -8 18 -8 12 1 -4 7 -1 11 6 9 29 -3
39 2 39 19 0 14 2 15 10 2 9 -13 10 -13 11 0 1 8 1 18 1 21 -1 3 6 6 13 6 12
0 12 -3 3 -16 -9 -11 -6 -10 9 2 16 14 22 15 26 5 3 -7 5 -2 4 12 -1 16 3 25
13 26 8 1 19 2 24 3 5 0 3 8 -4 16 -7 8 -11 15 -9 16 2 0 12 2 22 4 22 4 35
15 19 15 -6 0 -9 7 -6 15 4 8 10 15 16 15 5 0 6 -5 2 -12 -4 -6 -3 -8 4 -5 5
4 9 18 8 32 -2 13 3 26 11 29 8 3 13 11 12 18 -3 25 1 39 10 33 5 -3 13 0 17
6 4 7 3 9 -3 6 -6 -4 -16 0 -23 8 -11 13 -10 14 4 9 12 -5 15 -2 9 12 -4 12
-3 15 6 9 10 -6 11 -3 2 13 -15 28 -14 32 7 26 10 -4 13 -3 6 3 -6 4 -10 16
-8 26 1 9 -4 17 -12 17 -17 0 -18 10 -3 30 9 13 10 12 5 -3 -4 -11 -2 -16 5
-12 6 4 8 14 4 23 -3 8 0 20 7 25 10 6 9 8 -3 4 -11 -4 -20 3 -27 18 -9 20 -9
23 3 18 22 -8 18 10 -5 25 -11 7 -20 18 -20 25 0 6 5 4 11 -5 5 -10 15 -18 20
-18 6 0 3 7 -5 16 -9 8 -13 20 -10 26 5 7 2 8 -6 3 -10 -6 -12 -2 -8 18 3 14
2 26 -1 25 -22 -2 -30 4 -24 19 4 10 2 14 -4 10 -6 -4 -14 0 -17 9 -3 8 -10
13 -15 10 -5 -3 -7 3 -4 14 4 14 0 20 -10 20 -9 0 -19 9 -22 20 -3 11 -15 20
-25 20 -10 0 -20 5 -22 11 -2 6 -17 12 -33 12 -17 0 -24 2 -17 4 33 12 3 21
-79 22 -69 2 -89 -1 -83 -10 5 -8 3 -9 -7 -3 -28 17 -44 13 -21 -6z m-84 -666
c3 -8 2 -12 -4 -9 -6 3 -10 10 -10 16 0 14 7 11 14 -7z m286 -80 c0 -8 -19
-13 -24 -6 -3 5 1 9 9 9 8 0 15 -2 15 -3z"/>
<path d="M1020 2556 c0 -2 7 -7 16 -10 8 -3 12 -2 9 4 -6 10 -25 14 -25 6z"/>
<path d="M1490 2548 c0 -5 -4 -7 -8 -4 -4 2 -9 -4 -9 -15 -1 -10 3 -19 9 -19
6 0 9 -3 6 -6 -4 -3 -15 -1 -26 5 -16 8 -21 7 -26 -5 -3 -8 -11 -12 -17 -8 -8
4 -9 3 -5 -5 6 -9 12 -9 24 1 13 10 13 7 -1 -9 -11 -12 -25 -19 -33 -16 -8 3
-14 0 -14 -7 0 -7 -8 -19 -17 -26 -17 -13 -17 -14 1 -7 13 4 17 3 12 -5 -4 -7
-15 -12 -24 -12 -15 0 -15 -2 -2 -10 13 -8 12 -10 -4 -10 -16 0 -17 -2 -5 -17
13 -15 12 -15 -9 -4 -22 12 -23 11 -12 -9 7 -13 8 -20 2 -16 -6 3 -13 2 -17
-4 -3 -5 -2 -10 3 -10 16 0 1 -38 -17 -44 -9 -3 -4 -4 11 -2 15 2 25 -1 22 -5
-3 -5 -12 -9 -21 -9 -13 0 -13 -3 -3 -15 11 -13 10 -14 -3 -9 -13 5 -15 0 -11
-21 3 -19 1 -25 -8 -20 -7 4 -5 0 5 -8 15 -13 16 -15 2 -21 -8 -3 -15 -11 -15
-18 0 -9 3 -9 10 2 5 8 12 11 16 7 4 -3 1 -13 -6 -22 -8 -10 -9 -15 -1 -15 6
0 11 -4 11 -9 0 -6 -9 -8 -21 -6 -17 3 -19 2 -9 -10 7 -8 16 -12 21 -9 9 5 13
-9 10 -35 -2 -8 2 -10 10 -5 8 4 10 3 5 -5 -6 -8 -12 -9 -20 -2 -9 8 -13 7
-13 -4 0 -7 3 -14 6 -13 18 2 31 -3 31 -13 0 -5 -6 -7 -12 -3 -10 6 -10 4 0
-7 15 -17 16 -43 0 -33 -7 5 -8 3 -3 -5 4 -7 21 -19 39 -27 23 -10 26 -13 11
-14 -19 -1 -19 -1 -2 -11 9 -6 15 -14 12 -20 -4 -5 1 -9 10 -9 9 0 13 -4 10
-10 -3 -5 -2 -10 2 -10 5 0 16 -12 25 -27 10 -17 18 -22 18 -13 0 8 6 4 13
-10 7 -14 18 -26 25 -26 7 -1 16 -2 21 -3 5 0 18 -9 27 -18 17 -17 17 -17 11
-1 -3 10 -2 20 4 23 5 4 9 3 8 -2 -4 -20 2 -24 18 -12 11 10 14 10 9 2 -4 -8
-2 -13 4 -13 6 0 8 -6 4 -12 -4 -8 -3 -10 2 -5 5 5 9 13 9 19 0 6 8 12 18 14
9 1 17 -2 17 -8 0 -6 -7 -8 -14 -5 -10 4 -13 1 -10 -7 4 -11 10 -11 29 -2 13
6 22 13 20 16 -2 3 6 7 18 7 17 2 19 0 7 -7 -8 -5 -10 -10 -4 -10 5 0 20 9 31
20 16 14 23 16 27 7 4 -7 4 -2 2 11 -2 12 0 22 5 22 5 0 9 -4 9 -10 0 -5 4
-10 10 -10 5 0 6 8 3 18 -6 15 -5 15 11 3 9 -8 16 -10 15 -5 -4 22 2 44 12 44
5 0 7 -5 3 -12 -4 -7 -3 -8 4 -4 7 4 12 14 12 22 0 10 5 12 13 8 7 -5 7 -2 -2
10 -8 9 -10 16 -5 15 19 -3 34 1 34 12 0 5 -5 7 -12 3 -7 -4 -8 -3 -4 5 4 6
12 9 17 6 10 -7 33 44 24 53 -3 3 -5 -1 -5 -8 0 -7 -3 -11 -6 -8 -3 4 2 18 11
32 11 17 22 23 33 18 15 -5 15 -4 0 12 -21 20 -23 32 -6 42 7 5 8 3 3 -6 -5
-9 -4 -11 4 -6 8 5 7 13 -3 28 -14 20 -11 53 3 43 4 -2 8 2 8 10 0 8 -4 12 -8
9 -12 -7 -6 40 6 48 6 5 6 8 -2 8 -7 0 -13 5 -13 11 0 5 4 8 9 4 5 -3 3 8 -6
25 -8 17 -12 37 -9 45 3 8 1 15 -4 15 -6 0 -10 5 -10 11 0 5 5 7 12 3 7 -5 8
-3 4 5 -5 7 -10 10 -14 7 -11 -12 -31 29 -20 41 8 10 6 13 -6 13 -9 0 -16 7
-16 16 0 8 -4 13 -9 9 -5 -3 -12 -1 -15 4 -4 5 -1 13 5 17 8 5 9 3 4 -6 -6 -9
-4 -11 5 -5 10 6 9 11 -5 21 -10 7 -22 11 -28 7 -6 -3 -7 -1 -3 5 6 10 -4 16
-25 14 -3 -1 -6 6 -6 13 0 9 5 12 12 7 6 -4 3 0 -7 9 -9 9 -14 20 -10 24 4 5
1 5 -6 1 -7 -4 -10 -11 -8 -15 3 -4 -1 -8 -8 -8 -8 0 -12 6 -9 14 3 7 -2 14
-11 14 -29 2 -34 4 -41 11 -4 4 5 5 21 2 18 -3 24 -1 16 4 -21 14 -184 13
-175 -1 5 -9 3 -9 -8 -1 -17 13 -49 14 -49 2z m33 -11 c3 -8 -3 -13 -18 -13
-13 0 -21 4 -19 8 3 5 10 6 15 3 5 -4 9 -1 9 4 0 15 7 14 13 -2z m-49 -723 c3
-8 2 -12 -4 -9 -6 3 -10 10 -10 16 0 14 7 11 14 -7z m56 -8 c0 -3 -4 -8 -10
-11 -5 -3 -10 -1 -10 4 0 6 5 11 10 11 6 0 10 -2 10 -4z"/>
<path d="M1140 2446 c0 -2 7 -7 16 -10 8 -3 12 -2 9 4 -6 10 -25 14 -25 6z"/>
<path d="M1875 2360 c3 -5 8 -10 11 -10 2 0 4 5 4 10 0 6 -5 10 -11 10 -5 0
-7 -4 -4 -10z"/>
<path d="M613 2305 c0 -8 4 -12 9 -9 5 3 6 10 3 15 -9 13 -12 11 -12 -6z"/>
<path d="M1910 2281 c0 -6 4 -13 10 -16 6 -3 7 1 4 9 -7 18 -14 21 -14 7z"/>
<path d="M204 2210 c-11 -11 -31 -21 -46 -22 -15 -1 -25 -5 -22 -9 6 -10 -22
-30 -31 -21 -4 4 -2 -4 5 -18 12 -23 12 -24 -3 -11 -11 9 -17 10 -18 2 -4 -32
-6 -36 -17 -33 -7 1 -12 -3 -12 -9 0 -5 -4 -7 -10 -4 -7 4 -7 -3 0 -20 9 -23
8 -25 -9 -15 -16 8 -18 7 -14 -10 3 -11 10 -17 17 -14 6 3 2 -2 -9 -11 -16
-12 -17 -18 -7 -24 11 -7 11 -9 -1 -14 -11 -4 -14 1 -13 18 2 13 -1 29 -5 37
-5 7 -7 -56 -6 -141 2 -127 5 -155 17 -159 13 -5 13 -3 0 14 -14 19 -14 19 8
0 23 -20 30 -32 12 -21 -5 3 -10 1 -10 -4 0 -6 6 -11 13 -11 8 0 7 -4 -3 -10
-11 -7 -11 -10 -2 -10 7 0 11 -4 8 -8 -2 -4 0 -14 5 -22 7 -12 11 -13 18 -2 7
11 9 11 14 -2 3 -8 1 -18 -5 -22 -7 -5 -8 -2 -3 6 5 9 4 11 -4 6 -6 -4 -9 -12
-5 -17 3 -5 10 -7 15 -4 5 4 9 1 9 -5 0 -6 4 -8 10 -5 6 3 7 -1 4 -10 -5 -11
-2 -16 7 -15 27 4 40 0 34 -10 -3 -5 -11 -10 -16 -10 -6 0 -7 5 -3 12 4 7 3 8
-5 4 -18 -11 -2 -28 20 -21 13 4 19 2 17 -6 -2 -9 7 -12 31 -10 22 2 31 -1 27
-8 -4 -6 0 -11 9 -11 10 0 13 5 9 12 -4 7 -3 8 4 4 7 -4 12 -14 12 -22 0 -8 5
-12 10 -9 7 4 6 14 -1 28 -9 19 -8 20 3 6 7 -9 25 -18 40 -21 21 -4 26 -1 23
13 -3 12 1 16 11 12 7 -3 11 -10 7 -17 -3 -6 3 -2 14 9 11 11 18 25 15 30 -3
6 1 5 8 -2 14 -13 50 0 50 18 0 17 37 59 44 52 4 -4 9 3 13 15 3 12 9 22 13
22 4 0 11 7 14 16 5 13 3 14 -7 6 -10 -8 -13 -6 -13 9 0 22 1 22 29 8 21 -12
22 -11 4 8 -15 18 -16 23 -4 34 7 8 13 31 12 51 -1 21 1 35 5 33 3 -2 7 21 8
51 0 31 -3 52 -9 49 -5 -4 -9 -1 -9 4 0 6 5 11 11 11 6 0 3 8 -8 18 -10 9 -14
13 -7 9 7 -5 15 -3 20 4 4 8 3 9 -4 5 -7 -4 -12 -2 -12 3 0 6 -6 11 -14 11
-19 0 -26 21 -14 43 6 12 5 17 -6 17 -8 0 -18 5 -22 12 -4 7 -3 8 4 4 7 -4 12
-3 12 2 0 5 -11 14 -25 20 -17 8 -23 16 -18 28 5 13 2 16 -9 12 -8 -4 -21 -2
-29 4 -11 8 -10 9 4 4 11 -3 16 -2 12 4 -3 6 -13 10 -21 10 -8 0 -12 5 -9 10
4 6 3 10 -2 9 -4 -1 -17 -1 -28 0 -17 1 -18 3 -5 11 9 6 10 10 3 10 -6 0 -15
-5 -18 -10 -4 -7 -13 -7 -26 0 -11 6 -17 15 -15 19 3 4 -2 8 -10 8 -10 0 -11
-4 -4 -11 5 -5 10 -15 10 -20 0 -6 -4 -5 -9 3 -8 12 -12 12 -25 2 -12 -10 -16
-11 -16 -1 0 9 -7 8 -25 -4 -29 -19 -32 -15 -9 9 9 9 14 18 12 20 -2 3 -13 -4
-24 -15z m-50 -45 c-4 -8 -11 -15 -16 -15 -6 0 -5 6 2 15 7 8 14 15 16 15 2 0
1 -7 -2 -15z"/>
<path d="M246 2218 c3 -4 9 -8 15 -8 5 0 9 4 9 8 0 5 -7 9 -15 9 -8 0 -12 -4
-9 -9z"/>
<path d="M2200 2225 c6 -30 -1 -38 -15 -19 -12 15 -14 16 -9 2 4 -13 1 -16
-14 -13 -12 2 -33 -9 -53 -27 -19 -17 -25 -24 -14 -17 19 12 19 12 2 -7 -15
-16 -19 -17 -27 -4 -14 21 -12 3 2 -23 10 -20 10 -21 -6 -8 -9 8 -16 10 -15 5
1 -5 1 -18 0 -29 -1 -17 -3 -18 -11 -5 -10 15 -13 6 -13 -42 0 -10 -4 -15 -8
-12 -5 3 -7 9 -4 14 3 5 1 11 -4 15 -6 3 -8 -6 -5 -21 3 -17 -2 -34 -13 -48
-14 -17 -15 -18 -1 -8 12 10 18 10 24 1 4 -7 3 -10 -2 -7 -5 3 -19 -4 -32 -17
-17 -16 -19 -22 -8 -22 8 0 13 3 11 7 -2 4 2 7 10 7 13 0 13 -3 -1 -18 -14
-16 -14 -18 1 -27 16 -8 16 -9 1 -15 -10 -4 -15 -3 -11 3 3 6 1 10 -4 10 -6 0
-11 -9 -11 -21 0 -13 4 -18 13 -13 7 5 6 0 -3 -11 -14 -17 -13 -18 2 -12 10 3
20 2 23 -4 4 -5 3 -9 -2 -8 -20 3 -25 -2 -13 -16 11 -13 10 -14 -2 -10 -9 4
-15 0 -15 -9 0 -8 8 -13 17 -11 9 2 17 -3 17 -10 0 -8 -7 -11 -16 -8 -10 4 -8
-2 7 -16 25 -24 30 -40 7 -21 -13 11 -14 10 -9 -4 3 -9 12 -16 19 -16 19 0 28
-17 14 -26 -8 -4 -9 -3 -5 4 4 7 2 12 -3 12 -16 0 -13 -20 4 -26 8 -4 12 -10
9 -15 -3 -5 2 -9 10 -9 8 0 18 -5 22 -12 4 -6 3 -8 -3 -5 -5 3 -10 0 -10 -7 0
-8 7 -12 15 -8 10 3 13 1 8 -6 -4 -7 1 -10 14 -7 14 3 20 -2 20 -13 1 -18 30
-63 30 -46 0 6 -5 15 -11 21 -8 8 -7 13 2 18 8 5 10 4 5 -3 -4 -8 3 -16 19
-22 34 -13 38 -13 29 2 -4 7 -3 8 5 4 18 -12 1 -27 -22 -20 -12 3 -19 3 -15
-1 11 -11 70 -16 63 -6 -3 5 -1 12 4 15 10 7 9 -13 -1 -30 -4 -6 -1 -11 7 -11
8 0 11 5 8 10 -4 7 1 8 13 3 34 -15 59 -12 59 6 0 9 4 20 9 25 5 4 6 3 2 -4
-3 -6 -2 -14 4 -18 6 -3 10 4 10 17 0 19 2 20 11 8 8 -11 12 -12 16 -2 2 6 14
12 26 12 12 0 29 5 37 11 11 8 9 9 -10 3 -24 -7 -24 -6 8 26 17 19 32 37 32
42 0 4 10 8 23 8 18 0 19 2 7 10 -12 8 -9 15 20 41 19 17 26 25 16 18 -18 -13
-19 -12 -12 6 5 11 9 26 9 33 0 6 5 12 11 12 6 0 4 5 -4 10 -13 9 -13 11 0 20
11 7 11 10 2 10 -7 0 -10 5 -7 10 4 6 10 8 14 6 4 -3 8 1 8 9 0 8 -4 12 -8 10
-4 -3 -10 2 -13 11 -8 21 -8 24 5 24 5 0 7 -4 4 -10 -3 -5 -2 -10 3 -10 6 0
13 7 16 16 3 8 2 13 -2 11 -4 -3 -13 1 -19 9 -9 8 -9 15 -2 19 7 5 6 12 -3 22
-7 9 -11 28 -10 44 4 30 -19 63 -34 51 -5 -4 -2 2 6 12 14 18 13 18 -10 11
-23 -7 -23 -7 -7 9 23 23 22 25 -10 20 -18 -3 -23 -1 -15 4 11 7 10 12 -2 25
-9 9 -16 20 -15 24 3 19 -2 23 -20 13 -16 -8 -21 -6 -26 11 -5 15 -10 17 -20
9 -11 -9 -13 -6 -9 12 2 13 2 17 -2 11 -8 -18 -34 -16 -34 1 0 8 -5 18 -12 22
-8 5 -9 2 -5 -10 4 -11 3 -15 -4 -10 -6 4 -15 0 -20 -7 -7 -11 -9 -11 -9 -1 0
7 -5 10 -11 7 -5 -4 -19 1 -30 11 -11 10 -20 14 -19 9z m-60 -55 c-24 -15 -36
-11 -14 4 10 8 21 12 24 10 2 -3 -2 -9 -10 -14z m354 -448 c3 -5 -1 -9 -9 -9
-8 0 -12 4 -9 9 3 4 7 8 9 8 2 0 6 -4 9 -8z m-224 -186 c0 -6 4 -5 9 2 7 11 9
11 14 -1 4 -12 0 -15 -15 -12 -27 6 -44 22 -23 22 8 0 15 -5 15 -11z"/>
<path d="M2236 2221 c9 -9 34 -9 34 -1 0 5 -9 8 -20 7 -10 -1 -17 -3 -14 -6z"/>
<path d="M505 2041 c-6 -11 13 -26 22 -17 4 3 1 6 -6 6 -7 0 -9 5 -6 10 3 6 4
10 1 10 -3 0 -7 -4 -11 -9z"/>
<path d="M546 1815 c-9 -26 -7 -32 5 -12 6 10 9 21 6 23 -2 3 -7 -2 -11 -11z"/>
<path d="M525 1750 c-3 -6 1 -7 9 -4 18 7 21 14 7 14 -6 0 -13 -4 -16 -10z"/>
<path d="M2447 1632 c-15 -16 -15 -19 -2 -19 8 0 13 3 10 5 -3 3 0 11 6 19 17
20 5 16 -14 -5z"/>
<path d="M446 1612 c-3 -5 1 -9 9 -9 8 0 12 4 9 9 -3 4 -7 8 -9 8 -2 0 -6 -4
-9 -8z"/>
<path d="M1225 1570 c-4 -6 -11 -8 -16 -5 -5 3 -6 -2 -2 -12 5 -15 3 -16 -8
-5 -15 14 -33 16 -25 3 4 -5 -3 -7 -14 -4 -11 3 -20 10 -20 17 0 8 -2 8 -8 0
-4 -7 -16 -12 -27 -12 -35 1 -45 -2 -45 -13 0 -6 5 -7 13 -2 18 11 38 13 31 2
-3 -5 -9 -7 -14 -4 -5 3 -12 0 -16 -6 -5 -8 -13 -4 -25 12 -17 22 -18 23 -15
3 3 -13 -1 -21 -9 -21 -8 0 -12 4 -9 8 2 4 -1 11 -7 15 -7 4 -9 3 -6 -3 7 -12
-7 -26 -36 -36 -12 -5 -16 -3 -11 5 4 7 -6 2 -23 -10 -23 -16 -34 -19 -39 -11
-4 7 -3 9 3 6 6 -4 17 1 24 11 12 15 12 15 -1 5 -8 -6 -19 -12 -25 -13 -33 -7
-38 -13 -19 -27 21 -15 19 -16 -23 -4 -22 7 -35 6 -39 -1 -4 -6 -2 -8 4 -4 6
3 14 1 18 -6 4 -7 4 -10 -1 -6 -4 4 -15 2 -23 -5 -11 -8 -14 -8 -9 0 4 6 3 14
-3 18 -6 3 -10 -4 -10 -16 0 -12 -3 -19 -7 -16 -3 4 -12 -1 -20 -11 -8 -9 -12
-11 -8 -4 3 6 2 12 -3 12 -6 0 -13 -7 -16 -16 -5 -14 -9 -14 -23 -3 -12 10
-15 10 -9 1 5 -8 -2 -15 -18 -22 -29 -11 -36 -23 -8 -14 14 5 14 4 2 -4 -8 -6
-19 -7 -25 -2 -6 5 -21 -1 -38 -16 -15 -13 -25 -24 -21 -24 4 0 19 10 33 23
20 17 22 18 11 2 -29 -38 -65 -65 -83 -61 -14 3 -16 1 -7 -8 7 -10 6 -17 -7
-27 -14 -12 -16 -12 -9 0 6 9 5 12 -5 9 -8 -3 -13 -12 -13 -21 1 -9 -1 -16 -5
-15 -21 2 -41 -3 -41 -12 0 -5 8 -10 18 -11 14 0 14 -2 -3 -8 -11 -5 -25 -4
-32 1 -8 7 -10 3 -6 -11 3 -13 1 -21 -6 -21 -7 0 -9 -5 -5 -12 5 -8 2 -9 -12
-4 -10 4 -15 4 -11 0 4 -4 2 -13 -3 -20 -6 -6 -9 -18 -8 -25 2 -8 -4 -13 -14
-11 -12 2 -16 -4 -14 -22 3 -19 -1 -24 -16 -21 -15 3 -17 1 -9 -8 7 -9 7 -17
-1 -27 -8 -12 -9 -12 -4 3 5 15 3 16 -14 7 -11 -6 -20 -13 -20 -16 0 -3 4 -3
9 0 5 3 8 -7 7 -23 0 -16 -4 -27 -8 -25 -5 3 -8 0 -8 -7 0 -7 -3 -9 -7 -6 -3
4 -12 2 -19 -4 -10 -8 -11 -16 -3 -31 8 -14 8 -18 0 -14 -6 4 -9 -4 -6 -23 2
-17 0 -30 -3 -30 -20 3 -25 -2 -12 -11 12 -8 11 -10 -7 -10 -17 0 -20 -5 -16
-22 4 -19 3 -20 -6 -8 -6 8 -11 11 -11 6 0 -5 8 -18 17 -28 16 -18 16 -18 -3
-12 -16 7 -17 6 -6 -8 10 -13 10 -18 1 -24 -8 -4 -9 -3 -5 4 5 8 1 10 -9 5
-13 -4 -14 -8 -4 -14 7 -4 14 -15 15 -24 2 -12 -3 -14 -19 -10 -12 4 -17 3
-11 -2 6 -4 14 -21 18 -38 7 -29 7 -29 -8 -10 -15 19 -16 19 -9 1 5 -15 3 -17
-8 -12 -8 4 -5 0 5 -8 17 -14 18 -16 3 -16 -20 0 -21 -4 -7 -31 6 -11 7 -18 3
-17 -4 2 -9 -1 -10 -7 -1 -5 6 -9 15 -7 12 2 10 -3 -7 -16 -18 -14 -21 -21
-11 -27 9 -6 11 -4 5 6 -8 12 -6 12 8 0 15 -12 15 -31 1 -31 -3 0 -2 5 2 12 4
7 3 8 -4 4 -15 -9 -15 -12 4 -30 14 -15 13 -16 -7 -16 -22 0 -22 0 -3 -16 10
-8 14 -13 8 -10 -7 3 -9 -6 -6 -25 3 -19 9 -28 17 -25 16 6 14 -16 -4 -37 -10
-13 -9 -15 8 -10 16 4 21 1 21 -14 0 -10 6 -25 13 -32 10 -11 10 -13 0 -7 -7
4 -13 2 -13 -3 0 -10 14 -15 32 -12 4 0 5 -5 2 -13 -3 -7 2 -20 10 -29 19 -18
21 -31 4 -21 -7 4 -8 3 -4 -5 4 -6 11 -9 15 -6 5 2 19 -8 32 -23 18 -20 19
-22 3 -9 -22 18 -39 23 -30 8 3 -5 22 -16 41 -26 30 -14 34 -19 24 -31 -10
-13 -8 -13 15 -5 14 6 26 9 27 8 0 -1 2 -10 4 -20 2 -11 5 -20 7 -21 2 0 14
-10 27 -21 14 -11 21 -15 18 -9 -4 7 2 14 12 17 12 3 22 -1 25 -9 3 -8 13 -14
23 -14 15 0 16 -2 3 -11 -12 -8 -10 -9 9 -4 16 5 21 4 17 -4 -4 -6 -2 -11 3
-11 6 0 11 6 11 13 0 8 3 9 8 1 8 -12 293 -14 286 -2 -3 4 0 8 5 8 6 0 11 7
11 15 0 8 5 15 11 15 5 0 7 -4 4 -10 -3 -5 7 -2 24 7 16 10 27 22 24 27 -3 5
-1 6 6 2 9 -6 9 -11 0 -22 -6 -8 -9 -17 -5 -21 3 -3 6 -1 6 5 0 7 7 12 16 12
8 0 12 5 8 11 -4 7 2 10 17 8 30 -3 71 10 64 20 -2 5 7 6 22 3 17 -3 29 0 35
12 5 9 14 16 21 16 7 0 6 -4 -3 -10 -13 -8 -13 -11 -1 -22 10 -9 12 -9 7 -1
-8 14 35 28 58 20 10 -4 13 -1 9 9 -3 7 0 14 6 14 6 0 11 -4 11 -10 0 -5 5
-10 11 -10 5 0 8 4 4 9 -3 5 -1 12 4 15 5 4 13 1 17 -5 5 -8 3 -9 -6 -4 -9 6
-11 4 -5 -4 5 -9 10 -10 18 -2 18 18 31 12 16 -6 -12 -16 -12 -17 2 -6 9 7 20
9 24 5 5 -4 5 -1 1 5 -4 7 -2 13 3 13 6 0 11 -4 11 -10 0 -5 4 -10 10 -10 5 0
6 8 3 17 -5 14 -3 13 14 -3 11 -10 17 -23 14 -29 -3 -6 1 -6 10 1 20 15 45 11
41 -6 -3 -11 0 -12 8 -4 7 7 26 8 50 4 24 -4 43 -3 50 4 8 8 9 6 4 -9 -6 -16
-5 -18 7 -8 7 7 18 13 23 13 6 0 4 -5 -4 -10 -11 -7 -11 -10 -2 -10 7 0 10 -5
6 -12 -5 -7 -3 -8 7 -3 18 12 49 14 43 3 -8 -13 20 -9 36 4 12 11 12 10 1 -4
-10 -14 -9 -18 11 -29 20 -11 21 -10 11 3 -10 12 -10 15 2 15 8 0 15 -4 15 -9
0 -4 9 -8 21 -8 13 0 18 4 13 12 -4 7 -3 8 5 4 6 -4 9 -12 6 -17 -4 -5 -2 -9
4 -9 5 0 12 5 14 10 3 6 4 5 3 -2 -2 -7 -16 -13 -34 -12 -45 0 -28 -11 18 -12
27 -1 37 2 34 10 -3 7 2 13 10 13 8 0 12 -6 9 -13 -3 -9 16 -12 71 -11 41 0
73 4 70 8 -2 4 0 11 6 14 6 4 9 1 8 -6 -2 -8 10 -13 34 -14 20 -1 35 2 32 7
-3 4 0 8 7 8 8 0 7 5 -2 17 -13 17 -12 17 5 3 21 -16 49 -23 40 -9 -3 5 -10 6
-16 3 -7 -5 -8 -2 -3 5 4 7 16 11 26 8 13 -4 19 0 19 11 1 14 3 14 16 -3 16
-20 16 -20 10 2 -4 12 -2 24 5 29 8 4 9 3 5 -4 -4 -7 -2 -12 3 -12 10 0 15 14
12 33 -1 5 3 6 9 2 6 -3 8 -10 6 -14 -3 -4 1 -8 9 -8 8 0 12 4 9 9 -3 4 0 8 5
8 6 0 11 5 11 11 0 5 -5 7 -12 3 -7 -4 -8 -3 -4 5 6 9 11 9 21 1 11 -9 13 -6
11 14 -3 22 -1 24 16 15 18 -10 18 -9 8 11 -7 13 -7 20 -2 16 18 -11 41 5 37
26 -4 17 -2 18 13 7 9 -7 14 -9 9 -4 -4 4 0 19 9 33 12 18 12 23 3 17 -8 -3
-5 1 6 9 10 9 21 31 23 49 2 17 10 38 19 45 15 11 15 12 -1 12 -9 0 -14 5 -11
10 4 6 11 7 17 4 7 -4 8 -2 4 4 -13 21 -16 53 -4 46 6 -4 9 -1 6 7 -3 8 -1 22
4 32 5 10 5 17 -1 17 -5 0 -11 -6 -14 -12 -2 -7 -4 -1 -3 13 1 17 6 25 14 22
6 -3 12 0 12 6 0 6 -4 11 -9 11 -5 0 -12 7 -15 16 -3 8 -2 12 4 9 6 -3 10 -1
10 4 0 6 -6 11 -12 12 -7 0 -4 4 7 9 18 8 18 9 -5 10 -14 1 -19 4 -12 7 6 2
12 11 12 19 0 9 -4 13 -9 10 -5 -4 -8 2 -6 11 1 10 -5 27 -14 37 -16 19 -15
19 12 1 24 -15 27 -16 21 -1 -3 9 -10 16 -15 16 -5 0 -9 14 -9 30 0 17 -5 30
-11 30 -8 0 -8 4 0 13 8 10 6 19 -10 35 -11 12 -16 22 -10 22 10 0 9 14 -4 43
-6 15 -10 15 -23 5 -13 -11 -14 -11 -8 1 5 8 3 17 -5 23 -10 7 -7 8 11 4 14
-3 19 -3 12 0 -6 3 -10 10 -7 15 4 5 -2 6 -12 2 -16 -6 -17 -5 -3 12 13 17 13
18 -1 13 -13 -5 -16 -2 -12 13 3 11 0 19 -6 19 -7 0 -9 -5 -5 -12 4 -6 3 -8
-3 -5 -5 3 -8 20 -7 36 1 17 -2 29 -7 26 -4 -3 -6 -13 -3 -23 4 -13 3 -14 -4
-4 -5 7 -7 25 -5 40 4 21 2 24 -6 12 -9 -12 -11 -11 -11 7 0 12 -5 25 -12 29
-7 5 -8 3 -3 -6 5 -9 4 -11 -3 -6 -9 5 -9 13 -1 28 8 15 8 19 -1 13 -7 -4 -13
1 -17 14 -3 12 -10 21 -15 21 -6 0 -3 -12 6 -27 16 -27 16 -27 -8 2 -26 30
-34 51 -17 40 5 -3 13 -1 16 5 4 6 3 10 -2 9 -21 -4 -43 2 -43 12 0 5 5 7 10
4 16 -10 11 1 -7 16 -11 10 -14 10 -9 2 4 -7 2 -13 -3 -13 -6 0 -11 9 -11 20
0 11 -7 20 -16 20 -9 0 -12 5 -8 12 5 8 2 9 -10 5 -10 -4 -15 -3 -11 3 4 6 -2
18 -11 28 -17 16 -17 16 -11 0 3 -10 2 -20 -4 -23 -5 -4 -9 -3 -8 2 4 22 -2
34 -13 27 -7 -4 -10 -4 -6 1 4 4 3 16 -3 27 -8 14 -18 19 -35 15 -20 -3 -22
-2 -13 9 11 14 1 20 -25 15 -5 -1 -4 4 2 11 9 11 7 14 -9 15 -12 1 -17 -2 -12
-10 3 -7 -3 -4 -14 6 -11 9 -23 14 -28 10 -4 -5 -2 2 4 15 9 18 9 22 -1 20 -7
-2 -16 -7 -20 -13 -4 -6 -8 -2 -8 9 0 13 -5 17 -20 13 -11 -3 -18 -1 -15 3 9
15 -17 23 -27 9 -6 -10 -7 -7 -3 10 6 19 4 23 -9 18 -8 -3 -18 -1 -22 5 -5 7
-12 5 -22 -8 -14 -18 -14 -18 -8 0 5 14 2 17 -10 12 -11 -4 -18 1 -21 14 -5
17 -8 18 -21 8 -12 -10 -14 -10 -8 0 7 12 -3 14 -75 15 -21 0 -25 4 -21 20 4
16 1 18 -16 13 -39 -13 -63 -15 -57 -5 4 5 10 7 15 4 5 -3 11 -2 13 3 7 10
-77 10 -84 -1 -3 -5 -13 -1 -23 8 -9 9 -16 12 -16 7 0 -15 -25 -21 -41 -10
-11 8 -11 9 3 4 10 -3 20 -2 22 3 3 4 -11 7 -32 5 -20 -1 -37 -3 -37 -4 0 -1
-8 -3 -18 -5 -9 -2 -15 1 -11 6 3 5 10 6 16 3 7 -4 8 -2 4 4 -9 15 -13 15 -21
2z m275 -35 c0 -2 -10 -9 -22 -15 -22 -11 -22 -10 -4 4 21 17 26 19 26 11z
m-182 -394 c17 -17 32 -34 32 -38 0 -4 -7 0 -14 10 -7 9 -17 17 -22 17 -4 0
-3 -5 4 -12 7 -7 12 -25 12 -41 0 -16 4 -26 10 -22 6 3 7 -1 4 -9 -3 -9 -10
-13 -15 -10 -5 3 -6 -2 -3 -10 3 -9 10 -13 15 -10 5 3 6 -2 3 -10 -3 -9 -14
-16 -23 -16 -13 0 -14 -2 -1 -9 8 -6 18 -7 23 -4 5 3 1 -7 -8 -21 -14 -21 -15
-26 -4 -24 8 2 13 -2 12 -9 -2 -7 7 -10 23 -7 15 3 23 1 20 -5 -3 -5 3 -7 14
-4 11 3 21 13 21 22 1 14 2 13 6 -1 5 -21 23 -24 23 -5 0 8 3 8 8 1 12 -17 42
-25 36 -9 -6 14 7 14 39 0 14 -6 15 -10 5 -23 -12 -14 -10 -14 10 -3 22 12 23
11 14 -5 -10 -17 -8 -23 18 -74 10 -21 10 -23 -1 -12 -16 15 -33 16 -23 0 5
-8 2 -9 -9 -5 -9 3 -16 3 -16 -1 3 -20 -3 -23 -18 -11 -15 13 -15 12 -3 -11
12 -23 12 -24 -3 -11 -12 9 -34 12 -71 9 -35 -3 -53 -1 -52 6 2 6 1 8 -1 3 -3
-4 -9 -4 -14 -1 -12 7 -49 -24 -49 -39 0 -6 7 -2 16 9 15 19 16 19 9 -1 -4
-11 -10 -30 -12 -42 -3 -14 -10 -20 -17 -16 -6 4 -5 -1 2 -10 8 -9 11 -21 8
-26 -4 -5 -1 -13 5 -17 8 -4 9 -3 5 4 -4 7 -2 12 3 12 14 0 14 -13 -1 -28 -14
-14 -20 -44 -7 -36 5 3 7 10 4 15 -4 5 -1 9 4 9 14 0 14 -17 1 -25 -6 -4 -8
-11 -5 -16 3 -5 -1 -6 -9 -3 -11 4 -16 0 -16 -11 0 -10 5 -13 12 -9 7 4 8 3 4
-5 -4 -6 -13 -8 -19 -4 -6 4 -20 8 -29 8 -13 1 -15 -2 -7 -11 7 -9 6 -14 -3
-20 -7 -4 -10 -4 -6 1 12 12 -21 38 -42 32 -11 -3 -23 0 -27 5 -3 7 -1 8 5 4
6 -4 10 1 9 13 -1 19 -2 19 -19 4 -18 -16 -18 -16 -4 12 8 16 12 33 9 38 -10
16 -9 96 1 89 6 -3 6 3 2 14 -5 10 -9 25 -9 32 0 13 -5 14 -55 14 -20 0 -39
-8 -46 -18 -11 -15 -13 -15 -13 0 0 9 4 16 9 16 5 0 6 5 2 11 -4 7 -9 8 -13 1
-12 -20 -70 -18 -97 4 -10 8 -12 12 -4 8 12 -7 13 -5 3 8 -7 8 -10 18 -6 21 3
4 2 7 -4 7 -6 0 -13 7 -16 14 -4 11 -1 13 11 9 15 -6 15 -5 3 11 -13 15 -13
19 0 27 8 5 20 6 28 4 11 -5 12 -3 1 10 -7 9 -10 18 -6 22 3 3 6 2 6 -4 0 -6
7 -14 16 -17 8 -3 12 -2 9 4 -9 14 8 12 24 -2 11 -11 12 -10 6 1 -6 11 -4 13
8 8 10 -3 17 -2 17 3 0 6 5 10 11 10 5 0 7 -5 3 -12 -5 -7 -3 -8 7 -3 18 12
49 14 43 3 -3 -4 2 -8 11 -8 9 0 13 5 10 10 -3 6 -1 10 4 10 6 0 11 -6 11 -12
0 -7 5 -5 11 5 5 9 7 22 4 27 -3 6 0 10 7 11 7 0 4 4 -7 9 -19 8 -19 9 -1 9
19 1 19 1 0 23 -10 12 -13 18 -6 14 8 -5 12 -1 12 11 0 11 6 25 13 32 10 11
10 13 0 7 -7 -4 -13 -3 -13 3 0 5 -3 17 -7 27 -5 13 -3 15 7 9 10 -6 12 -4 7
8 -6 17 18 31 36 20 7 -4 6 0 -1 10 -12 15 -11 15 17 7 17 -5 31 -6 31 -2 0 4
5 0 11 -8 9 -13 10 -13 6 0 -2 8 -10 14 -16 13 -6 -2 -11 2 -11 7 0 17 14 11
48 -19z m-1013 -201 c3 -5 -1 -10 -10 -10 -9 0 -13 5 -10 10 3 6 8 10 10 10 2
0 7 -4 10 -10z m1060 -8 c-3 -3 -11 0 -18 7 -9 10 -8 11 6 5 10 -3 15 -9 12
-12z m222 -62 c2 -20 -8 -26 -20 -13 -4 3 -2 12 4 20 15 17 14 17 16 -7z m688
-19 c3 -5 2 -12 -3 -15 -5 -3 -9 1 -9 9 0 17 3 19 12 6z m-1330 -31 c3 -5 1
-10 -4 -10 -6 0 -11 5 -11 10 0 6 2 10 4 10 3 0 8 -4 11 -10z m1349 -38 c3 -5
-1 -9 -9 -9 -8 0 -12 4 -9 9 3 4 7 8 9 8 2 0 6 -4 9 -8z m-924 -22 c0 -5 -2
-10 -4 -10 -3 0 -8 5 -11 10 -3 6 -1 10 4 10 6 0 11 -4 11 -10z m-23 -85 c0
-8 -4 -12 -9 -9 -5 3 -6 10 -3 15 9 13 12 11 12 -6z m43 -553 c0 -5 -7 -9 -15
-9 -8 0 -12 4 -9 9 3 4 9 8 15 8 5 0 9 -4 9 -8z m-360 -37 c0 -2 -6 -5 -13 -8
-8 -3 -14 1 -14 8 0 7 6 11 14 8 7 -3 13 -6 13 -8z m-580 -31 c0 -3 -7 -1 -15
6 -8 7 -15 17 -15 22 0 5 7 3 15 -6 8 -8 15 -18 15 -22z m396 -13 c10 8 14 8
14 1 0 -6 -8 -16 -18 -21 -22 -12 -54 -9 -50 5 1 5 8 8 15 6 7 -2 13 3 14 10
0 11 2 11 6 0 4 -10 8 -10 19 -1z m-279 -7 c-3 -3 -12 -4 -19 -1 -8 3 -5 6 6
6 11 1 17 -2 13 -5z m1418 -3 c3 -5 2 -12 -3 -15 -5 -3 -9 1 -9 9 0 17 3 19
12 6z m-1215 -11 c0 -5 -4 -10 -10 -10 -5 0 -10 5 -10 10 0 6 5 10 10 10 6 0
10 -4 10 -10z"/>
<path d="M1526 1532 c-3 -5 1 -9 9 -9 8 0 12 4 9 9 -3 4 -7 8 -9 8 -2 0 -6 -4
-9 -8z"/>
<path d="M1838 1393 c7 -3 16 -2 19 1 4 3 -2 6 -13 5 -11 0 -14 -3 -6 -6z"/>
<path d="M570 1319 c0 -5 -5 -7 -12 -3 -7 4 -8 3 -4 -4 4 -6 13 -9 21 -6 8 4
12 10 9 15 -7 12 -14 11 -14 -2z"/>
<path d="M296 978 c3 -5 10 -6 15 -3 13 9 11 12 -6 12 -8 0 -12 -4 -9 -9z"/>
<path d="M210 301 c0 -6 4 -13 10 -16 6 -3 7 1 4 9 -7 18 -14 21 -14 7z"/>
</g>
</svg>
